HIERARCHY
ROOT Hips
{
	OFFSET -14.64140 90.27770 -84.91600
	CHANNELS 6 Xposition Yposition Zposition Zrotation Xrotation Yrotation
	JOINT Spine
	{
		OFFSET 0.00000 13.20850 -1.60436
		CHANNELS 3 Zrotation Xrotation Yrotation
		JOINT Spine1
		{
			OFFSET 0.00000 8.61716 0.00000
			CHANNELS 3 Zrotation Xrotation Yrotation
			JOINT Spine2
			{
				OFFSET 0.00000 8.61717 0.00000
				CHANNELS 3 Zrotation Xrotation Yrotation
				JOINT Spine3
				{
					OFFSET 0.00000 8.61717 0.00000
					CHANNELS 3 Zrotation Xrotation Yrotation
					JOINT Neck
					{
						OFFSET 0.00000 11.07920 1.10792
						CHANNELS 3 Zrotation Xrotation Yrotation
						JOINT Neck1
						{
							OFFSET 0.00000 7.08032 0.00000
							CHANNELS 3 Zrotation Xrotation Yrotation
							JOINT Head
							{
								OFFSET 0.00000 7.08031 0.00000
								CHANNELS 3 Zrotation Xrotation Yrotation
								End site
								{
									OFFSET 0.00000 0.00000 0.00000
								}
							}
						}
					}
					JOINT RightShoulder
					{
						OFFSET -0.01000 7.91373 5.19711
						CHANNELS 3 Zrotation Xrotation Yrotation
						JOINT RightArm
						{
							OFFSET -18.41580 0.00000 0.00000
							CHANNELS 3 Zrotation Xrotation Yrotation
							JOINT RightForeArm
							{
								OFFSET -29.11090 0.00000 0.00000
								CHANNELS 3 Zrotation Xrotation Yrotation
								JOINT RightHand
								{
									OFFSET -24.65040 0.00000 0.00000
									CHANNELS 3 Zrotation Xrotation Yrotation
									JOINT RightHandThumb1
									{
										OFFSET -5.35114 -0.85590 3.97906
										CHANNELS 3 Zrotation Xrotation Yrotation
										JOINT RightHandThumb2
										{
											OFFSET -4.52789 0.00000 0.00000
											CHANNELS 3 Zrotation Xrotation Yrotation
											JOINT RightHandThumb3
											{
												OFFSET -2.46976 0.00000 0.00000
												CHANNELS 3 Zrotation Xrotation Yrotation
												End site
												{
													OFFSET 0.00000 0.00000 0.00000
												}
											}
										}
									}
									JOINT RightHandIndex1
									{
										OFFSET -14.26970 0.00000 2.88139
										CHANNELS 3 Zrotation Xrotation Yrotation
										JOINT RightHandIndex2
										{
											OFFSET -5.48836 0.00000 0.00000
											CHANNELS 3 Zrotation Xrotation Yrotation
											JOINT RightHandIndex3
											{
												OFFSET -3.01859 0.00000 0.00000
												CHANNELS 3 Zrotation Xrotation Yrotation
												End site
												{
													OFFSET 0.00000 0.00000 0.00000
												}
											}
										}
									}
									JOINT RightHandMiddle1
									{
										OFFSET -14.26970 0.00000 -0.09147
										CHANNELS 3 Zrotation Xrotation Yrotation
										JOINT RightHandMiddle2
										{
											OFFSET -6.17441 0.00000 0.00000
											CHANNELS 3 Zrotation Xrotation Yrotation
											JOINT RightHandMiddle3
											{
												OFFSET -3.56743 0.00000 0.00000
												CHANNELS 3 Zrotation Xrotation Yrotation
												End site
												{
													OFFSET 0.00000 0.00000 0.00000
												}
											}
										}
									}
									JOINT RightHandRing1
									{
										OFFSET -12.69180 0.00000 -3.06433
										CHANNELS 3 Zrotation Xrotation Yrotation
										JOINT RightHandRing2
										{
											OFFSET -5.62556 0.00000 0.00000
											CHANNELS 3 Zrotation Xrotation Yrotation
											JOINT RightHandRing3
											{
												OFFSET -3.56744 0.00000 0.00000
												CHANNELS 3 Zrotation Xrotation Yrotation
												End site
												{
													OFFSET 0.00000 0.00000 0.00000
												}
											}
										}
									}
									JOINT RightHandPinky1
									{
										OFFSET -11.11390 0.00000 -6.03719
										CHANNELS 3 Zrotation Xrotation Yrotation
										JOINT RightHandPinky2
										{
											OFFSET -4.52789 0.00000 0.00000
											CHANNELS 3 Zrotation Xrotation Yrotation
											JOINT RightHandPinky3
											{
												OFFSET -2.46976 0.00000 0.00000
												CHANNELS 3 Zrotation Xrotation Yrotation
												End site
												{
													OFFSET 0.00000 0.00000 0.00000
												}
											}
										}
									}
								}
							}
						}
					}
					JOINT LeftShoulder
					{
						OFFSET 0.01000 7.91373 5.19711
						CHANNELS 3 Zrotation Xrotation Yrotation
						JOINT LeftArm
						{
							OFFSET 18.41580 0.00000 0.00000
							CHANNELS 3 Zrotation Xrotation Yrotation
							JOINT LeftForeArm
							{
								OFFSET 29.11090 0.00000 0.00000
								CHANNELS 3 Zrotation Xrotation Yrotation
								JOINT LeftHand
								{
									OFFSET 24.65040 0.00000 0.00000
									CHANNELS 3 Zrotation Xrotation Yrotation
									JOINT LeftHandThumb1
									{
										OFFSET 5.35114 -0.85590 3.97906
										CHANNELS 3 Zrotation Xrotation Yrotation
										JOINT LeftHandThumb2
										{
											OFFSET 4.52789 0.00000 0.00000
											CHANNELS 3 Zrotation Xrotation Yrotation
											JOINT LeftHandThumb3
											{
												OFFSET 2.46977 0.00000 0.00000
												CHANNELS 3 Zrotation Xrotation Yrotation
												End site
												{
													OFFSET 0.00000 0.00000 0.00000
												}
											}
										}
									}
									JOINT LeftHandIndex1
									{
										OFFSET 14.26970 0.00000 2.88139
										CHANNELS 3 Zrotation Xrotation Yrotation
										JOINT LeftHandIndex2
										{
											OFFSET 5.48836 0.00000 0.00000
											CHANNELS 3 Zrotation Xrotation Yrotation
											JOINT LeftHandIndex3
											{
												OFFSET 3.01859 0.00000 0.00000
												CHANNELS 3 Zrotation Xrotation Yrotation
												End site
												{
													OFFSET 0.00000 0.00000 0.00000
												}
											}
										}
									}
									JOINT LeftHandMiddle1
									{
										OFFSET 14.26970 0.00000 -0.09147
										CHANNELS 3 Zrotation Xrotation Yrotation
										JOINT LeftHandMiddle2
										{
											OFFSET 6.17440 0.00000 0.00000
											CHANNELS 3 Zrotation Xrotation Yrotation
											JOINT LeftHandMiddle3
											{
												OFFSET 3.56744 0.00000 0.00000
												CHANNELS 3 Zrotation Xrotation Yrotation
												End site
												{
													OFFSET 0.00000 0.00000 0.00000
												}
											}
										}
									}
									JOINT LeftHandRing1
									{
										OFFSET 12.69180 0.00000 -3.06433
										CHANNELS 3 Zrotation Xrotation Yrotation
										JOINT LeftHandRing2
										{
											OFFSET 5.62556 0.00000 0.00000
											CHANNELS 3 Zrotation Xrotation Yrotation
											JOINT LeftHandRing3
											{
												OFFSET 3.56744 0.00000 0.00000
												CHANNELS 3 Zrotation Xrotation Yrotation
												End site
												{
													OFFSET 0.00000 0.00000 0.00000
												}
											}
										}
									}
									JOINT LeftHandPinky1
									{
										OFFSET 11.11390 0.00000 -6.03719
										CHANNELS 3 Zrotation Xrotation Yrotation
										JOINT LeftHandPinky2
										{
											OFFSET 4.52789 0.00000 0.00000
											CHANNELS 3 Zrotation Xrotation Yrotation
											JOINT LeftHandPinky3
											{
												OFFSET 2.46976 0.00000 0.00000
												CHANNELS 3 Zrotation Xrotation Yrotation
												End site
												{
													OFFSET 0.00000 0.00000 0.00000
												}
											}
										}
									}
								}
							}
						}
					}
					JOINT pCube4
					{
						OFFSET 0.00000 10.91090 1.10792
						CHANNELS 3 Zrotation Xrotation Yrotation
						End site
						{
							OFFSET 0.00000 0.00000 0.00000
						}
					}
				}
			}
		}
	}
	JOINT RightUpLeg
	{
		OFFSET -9.98441 0.00000 0.00000
		CHANNELS 3 Zrotation Xrotation Yrotation
		JOINT RightLeg
		{
			OFFSET 0.00000 -42.11790 0.00000
			CHANNELS 3 Zrotation Xrotation Yrotation
			JOINT RightFoot
			{
				OFFSET 0.00000 -45.00020 -0.00001
				CHANNELS 3 Zrotation Xrotation Yrotation
				JOINT RightForeFoot
				{
					OFFSET 0.00000 -3.74820 0.00000
					CHANNELS 3 Zrotation Xrotation Yrotation
					JOINT RightToeBase
					{
						OFFSET 0.00000 0.06325 14.43120
						CHANNELS 3 Zrotation Xrotation Yrotation
						End site
						{
							OFFSET 0.00000 0.00000 0.00000
						}
					}
				}
			}
		}
	}
	JOINT LeftUpLeg
	{
		OFFSET 9.98441 0.00000 0.00000
		CHANNELS 3 Zrotation Xrotation Yrotation
		JOINT LeftLeg
		{
			OFFSET 0.00000 -42.11800 0.00000
			CHANNELS 3 Zrotation Xrotation Yrotation
			JOINT LeftFoot
			{
				OFFSET 0.00000 -45.00070 0.00000
				CHANNELS 3 Zrotation Xrotation Yrotation
				JOINT LeftForeFoot
				{
					OFFSET 0.00000 -3.74824 0.00000
					CHANNELS 3 Zrotation Xrotation Yrotation
					JOINT LeftToeBase
					{
						OFFSET 0.00000 0.06325 14.43110
						CHANNELS 3 Zrotation Xrotation Yrotation
						End site
						{
							OFFSET 0.00000 0.00000 0.00000
						}
					}
				}
			}
		}
	}
}
MOTION
Frames: 4
Frame Time: 0.050000
0.04808950151129973 0.0441418740335027 0.014998178726385411 0.03355862131160631 -0.01846102531164242 -0.04058899201456355 -2.640703115701413 1.1970082187321087 -0.7701274860427503 -0.9607906753157165 3.6682096049470068 0.3508697110340274 -1.2260403351500018 -1.9805611713210747 -0.9888098468200001 -0.5627538531615586 0.1487224997022123 -0.8093995748715935 -0.6694704852172634 13.686513923152377 1.3318811424380081 -0.23550621130507932 0.6903664935962175 0.9886680555470483 -0.7054026505453813 -13.844744990123527 0.1303696225997529 -7.076134693905926 2.424182069297787 -12.755688583640138 63.931152628020556 5.4015044740947795 24.554352925021494 17.61598824082902 -4.285248659439075 75.12229599612591 17.564169690419774 -0.3828193776990878 -3.503553389817813 4.4874380189684775 -0.1631930708658833 -1.6199061132721924 -0.02355516990163386 0.014187703100436723 -56.271908746575555 -0.021325362582523818 0.018221440295965972 -56.26204561645248 -38.73632135323846 0.00832471722547116 0.04054074702530733 -0.03810017683938363 0.034904887273528584 0.01754905092413388 -0.026542933382640826 0.047189328352878306 -0.032277012790967056 -36.730228552929276 0.03494649035732851 0.016982850804990388 -0.025405202533713287 -0.045825511299852774 0.015385063931227527 0.006286251469075969 -0.01400989913911085 -0.012694580346946243 -19.756363956706327 -0.03509429696851469 -0.027714443083295702 0.014136898517086797 0.023833378805653664 -0.04418664080536587 -0.008591060205506389 0.007863391387727018 0.03399320267786083 24.053670321362937 -0.02234479452470824 -0.04962979243785873 28.88204251651442 0.01709657289811195 0.04520813881227653 28.841659895625504 -0.037142808888414015 0.03159603010538748 8.837187466278737 1.9875316851042326 11.9998197873658 -63.70233074157102 13.93662280093177 -24.153353153380063 -38.064965771766545 3.362880731479318 -77.87548352221904 -13.10449123680504 -0.24047325446528092 1.1090020335567417 -0.47297616672625653 0.07621795698246789 -8.154340402524122 0.032487930594077216 -0.0037323495958897757 44.60633782379278 -0.0422767045459632 -0.02401417140929368 44.590967149799525 12.476920747595639 0.014972727918474682 0.00804896942587759 -0.024505415830575295 0.041362754515270675 0.02391616466478942 -0.005580687455718074 0.011329844976399205 -0.03525779081487481 11.147614246293843 -0.005969425676092937 0.020137275988535232 -0.03197150647571174 -0.04559235939066858 0.034722369587053555 0.03374965899440282 -0.0033149321641335475 0.0019950428367878446 4.757009774765577 0.009546507211810157 0.026071361831798756 0.03516033308085384 0.0034998217820739015 0.0171132164450137 -0.016054100585270823 -0.0200503908312337 -0.04936407502395162 -5.599823851622588 -0.029740845325003717 -0.0270675467681233 -6.750160448971554 0.047130762310419676 -0.016381263673635665 -6.715446460261678 -0.022969488125219834 0.004553199743294977 -0.01774593782006002 0.03875350648656638 0.041409831122209396 7.999344437527296 3.465950601890733 -19.19618753259971 0.0380526295244758 10.345826344982019 0.03784368980403713 -5.586082969911753 -15.703497348319939 3.1871290408160675 -0.030417324025590484 -0.04382186898570884 -0.022923200483384643 0.012173556328182683 4.7364173227032165 0.020625717016268003 12.490471384394386 -8.235894283097636 6.864664434447223 -0.0009690636958125467 46.38277521363436 0.046018468146292194 -4.316424304756731 -14.774521736783766 -3.8281189288313433 -0.017813353940783833 -0.03713616618683039 -0.025313132116027072 0.028705986688542986 -10.717242878738485 -0.022147895928813013 
0.01482153457505122 0.03930777582895205 0.047739202735625735 -0.005921602702687832 -0.03182647344280364 0.014801340581629248 -2.74588484375079 1.2176165174354898 -0.7378750636532079 -1.0070271182961792 3.647920158183487 0.3543859991680749 -1.1828536401566512 -1.966237436910157 -1.0617946834384397 -0.43413647388146004 0.2268105326625511 -0.8569900237226534 -0.6478440550836668 13.411572121671213 1.3538273520445556 -0.2757799215520582 0.5371723743163195 0.9488145167284612 -0.7140083433034314 -14.022366607031206 0.13370772251581575 -6.815984444812246 2.3430479000341946 -12.739513376286714 63.62021772430002 6.317792808875595 23.29218056683618 18.929254776083134 -5.351751909060356 72.65410976681805 17.80663449132741 -0.2813900033705866 -3.5075678157953023 4.5257221159493595 -0.13481365846911353 -1.5610114706167508 -0.028463210105275326 0.03842148017803583 -56.23544522161336 -0.032408012731532855 -0.005034143903922 -56.19259751853058 -38.77834114240462 -0.026371423383154596 0.017243977434835127 -0.01610324219419702 -0.01536653509582511 0.04056672201897946 -0.032725724434659535 0.02787077694812092 -0.026635931640113075 -36.667847100786034 0.022614689277121763 0.031143766229650118 0.009013084866896571 -0.03261368952458148 0.009360220505262046 -0.03267874856397443 -0.042009890301316855 0.031879979990375895 -19.718467764308876 0.003661139580758522 -0.0025298121124757702 0.004202141353741006 0.0440021826286469 0.044437787738420706 0.049361160464582075 -0.02116248039391485 0.012337827984402923 24.027493281090457 0.003984345266420356 0.0032595833021753506 28.839758504238084 -0.04002634353842982 -0.03227028278889497 28.84607016470544 -0.02090402242881004 0.00464790294748572 8.471095001749756 1.8663729243990905 11.964658278329047 -64.17187272288814 14.371723593289932 -22.730058299928324 -42.823651218585304 4.566943801740322 -76.58538017880527 -13.039561542371558 0.45674119716018624 0.6962349161189311 -0.4668768813818237 0.09659832282050289 -8.107356623601689 -0.01774919692332939 0.00040068453603887876 44.55984986327524 0.00023630258378853225 0.0497185818311441 44.598087332664775 12.440273443923061 0.02719810793716915 -0.04686898347587864 -0.030544894984589867 0.01910059712239659 0.03691645022637365 -0.014382538021871113 -0.012457428871325981 -0.006722963550599541 11.14050069664244 0.0015168708413220854 0.005208846889748204 0.041339933893580046 0.025045258162076096 -0.005695583919956827 0.04750456749634376 -0.042518978383670275 -0.004016308900796254 4.8079224884956675 0.040553287880929274 -0.009680580967383053 -0.03990471385771709 0.048366525267721436 0.03525259321753889 -0.011879988405696424 0.042822777316186 0.004226779644732213 -5.627134512428027 -0.000839243333581809 0.0020033000603205883 -6.704776071154751 -0.012016836089958524 0.024042516061295215 -6.735813551654994 -0.00602992471014319 0.006406898451193333 -0.007857835836813284 0.013567688670070362 0.0128905619721934 8.089694846878123 3.4765834305133025 -19.231326130006774 -0.0273180599989995 10.386867886210434 0.01154339189119915 -5.631319562670563 -15.65135432736916 3.2005280879672955 0.03450890810458546 -0.02599638783764312 0.010553903238457734 -0.012664607359868178 4.6920983830648595 -0.010959019702152618 12.460510983692805 -8.20434461257443 6.855546025100653 0.0226203217492675 46.33278089749787 -0.029859222596338227 -4.319435340099323 -14.783468908436268 -3.869594629209514 -0.002564602618974056 0.022888862512918884 0.007970984379859913 0.0373186818074104 -10.719839134480576 -0.01645021851325609 
0.04166461802543298 -0.020183601066048832 -0.026842743005857664 -0.0403341154332865 -0.002920425854390441 -0.005469918123483608 -2.738882583199453 1.3533774722316256 -0.6831234558444431 -1.0544978606788984 3.7605944485704463 0.3887428727672634 -1.2255040017882082 -1.9063349588198435 -1.0101117820027485 -0.38600193658778553 0.2798231629553798 -0.8536471924441967 -0.6602495412020618 13.214982688971133 1.2485710692299554 -0.32445456341687573 0.33188324449994816 0.5962316647173229 -0.7302395888498598 -14.269273698661756 0.08432286499996565 -6.6293061187314795 2.249549337458497 -12.894282362248449 63.44684133360382 7.201012152026019 21.705480338599752 21.67634040215505 -6.17735424856623 69.81063625670107 18.250335646245528 -0.298774292991811 -3.5648876185012037 4.480350622206721 -0.1545418291536229 -1.5981721553325792 -0.015153471276404464 -0.01694802617624628 -56.21684032524875 0.04449159027980345 -0.03813292512334878 -56.20548890629023 -38.80509026949143 0.022925068463329073 -0.03426234423554429 0.025807258035531216 -0.0029188554907419485 -0.020119184227224095 -0.0037753263468038715 -0.007745711497555156 -0.031909778998540465 -36.70426974320941 0.03874568968988773 0.015106957811400857 -0.02531316007326206 0.006156160594581245 0.045001284877352846 0.0036492153960398736 0.017497062041165388 0.01898644209975458 -19.797045552098563 -0.025976446622538476 0.01302872798276587 -0.045370572887433645 -0.02901683093485161 0.00570282269798897 0.03404518155624936 0.020260027355108134 0.048040372384757925 24.09382147865799 0.035369465872908144 -0.047531706857299426 28.906369963595434 0.01736172480370841 0.008027867389638347 28.8620370951282 -0.02178662703291354 0.029496794592743167 8.018278697206608 1.7154601368777485 11.910525084334363 -64.6508890947087 14.79004120539027 -20.28500828764284 -46.20354286395815 4.824301463070858 -74.45513410565496 -12.935967961009563 1.1955740655534255 0.3359595163458953 -0.4407750329478741 0.056853008669968674 -8.133649953917724 -0.025848082251221035 0.015193176526630494 44.5598529422094 -0.016435636067529465 -0.030873989054351823 44.58784295936285 12.413445124961232 -0.01119633634770303 0.03048682427908835 0.009540394482406811 -0.0190616302723047 -0.025328798852889398 -0.007212919060014096 0.04075128386816158 0.04883891940186927 11.104448150008764 0.02346913518622079 -0.014213190299691814 -0.011725811825132175 -0.030491772020654336 0.013535508271560118 -0.030795882975411137 0.02419644275394634 0.039068588804130513 4.7749781133825016 -0.022570032026723946 0.008284731326863146 0.03621961434929295 -0.015387424615242888 0.020754322474034703 0.04914621496951635 0.012284974322495595 0.027866852641138945 -5.575366307770722 0.01725976366659142 0.011403154736229831 -6.703303891622183 -0.022332526765932455 0.005811191244035835 -6.751987956812246 0.014954409072228012 -0.016162551461381684 0.0033061066820584562 -0.04259888554821045 0.01397063983132283 8.053597625077371 3.4504996353302744 -19.252893344860368 -0.02029878801044769 10.395835759744104 0.055541371654080476 -5.633290317507137 -15.632439203833107 3.193174062896265 0.00965095749108408 -0.00988938228381385 -0.01155249814525912 0.03209072031938016 4.737775437106692 -0.021759981911725526 12.449883099510716 -8.221207117325582 6.882051693666832 -0.003135916180182603 46.37392588664217 0.013946933656664556 -4.313132000660641 -14.716651177624717 -3.835398295989799 -0.028374417367327966 0.03610746072596494 -0.04131767108905488 -0.02525254684859562 -10.714280753890494 -0.027842510837178966 
0.013825511708901839 0.036570984377127386 -0.033595630672101556 0.04530413156830691 -0.042562047117806534 0.028371485138159448 -2.7887185478834486 1.445184600229363 -0.6782909670870847 -0.9983975305270864 3.7924811498630624 0.3521299074083614 -1.2207876041988395 -1.8447663768147007 -1.0047854529843863 -0.23265387715812316 0.2928647004159184 -0.8000386417901946 -0.5289229267224137 13.038292975496661 0.93180720793397 -0.34485227211873637 0.12967503851750825 -0.2538788177574742 -0.5784890390483673 -14.580259376527597 0.002606833264705198 -6.455495224472631 2.190204135807242 -12.985024939105108 63.45124267103868 7.611737976263451 20.377362364916216 23.893229594106124 -6.883737629300994 67.43113255147969 18.341053276966402 -0.2994295442275743 -3.5057755498082774 4.566277213350809 -0.11466379607047116 -1.6208589940236897 0.028683230763199702 0.030953695073525835 -56.22195430980232 0.010712174103363373 0.02468897491429767 -56.25014746856249 -38.77625988225292 0.028684814000573197 -0.04064108642413532 0.019701580170669464 0.042550159627951126 -0.0253304480677231 -0.0028376753374263243 0.03187339775701427 0.03019640225553516 -36.71714249650651 -0.0485580583647122 -0.01445010612329343 -0.036217335432073956 -0.0039895931608552905 -0.012353023645688825 0.026608054939389447 -0.0007721268173173114 -0.02420824853985292 -19.766960815818965 0.012758682075155143 0.03755796267667192 -0.019933201497968733 0.007975740515261617 0.026094922290528146 -0.040227130291003964 0.0016253878137537086 -0.010015413765879985 24.022851552216288 -0.0021032464227151233 0.01404271442319186 28.898949126475436 -0.032026276361402053 0.02437088997528929 28.82509399905798 0.030632596839029608 -0.03476438658003738 7.414623309118557 1.5726591632310907 12.00484837230065 -65.14834425914451 15.68380985445478 -17.363964214365645 -45.510383431387865 3.834052246713251 -70.63155253158142 -12.5602505645376 1.8003712646665944 -0.0447417741184071 -0.45903145238668397 0.03243224273750136 -8.099376606334017 -0.01861267656469861 0.0016349609487238568 44.555837582967776 0.01093544106334125 -0.00013048613869605233 44.54341833918192 12.432295045037932 -0.03921439029787524 0.025834338502059396 -0.025649029738880332 0.0066782343971340105 0.04909801316393572 0.017188678096694183 -0.0011366673338146472 0.0034989754526148194 11.118980676072766 -0.010459956311667956 -0.04920178464290157 0.002222374577871805 0.016969559048630616 -0.04241884343186192 0.018937058458922598 -0.007943948222061917 0.0017726339952722154 4.7975689960402 0.044417950741967145 -0.039036765554649966 -0.03290943487866194 -0.008258430988979234 -0.005849351023800657 0.02874977823439849 -0.037892023149867025 0.008817979930003444 -5.571650721523347 0.011702372290491649 0.0191313280330254 -6.679367527371699 -0.02358852227479671 -0.005903481257605587 -6.723271793215732 0.006204638965301543 -0.03967149686752186 0.022058110790781293 -0.025577353218631357 0.038279020235238055 8.00409481324973 3.507871860973626 -19.1922256963368 0.0053657433892226394 10.378412796542742 -0.007795244758932236 -5.599631844245446 -15.665611785627938 3.213745532327903 0.015315404780793799 -0.015458314106726673 0.017462504325384976 -0.04268547572359129 4.714769138415119 -0.010870508419233468 12.497888217693584 -8.247247129450434 6.89305902352144 0.00567829919312414 46.33410627301714 0.05103441965954898 -4.359212546176695 -14.738876127079203 -3.7854173413187735 -0.0408602737021455 -0.027673592483331018 0.018855738244945262 -0.000680698114143358 -10.699829153259268 -0.00632678378368658 
